<mxfile host="app.diagrams.net" modified="2020-11-18T04:53:37.435Z" agent="5.0 (Windows NT 10.0; Win64; x64) AppleWebKit/537.36 (KHTML, like Gecko) Chrome/86.0.4240.198 Safari/537.36" etag="4ID5TbnEEIVjbwKjNU3b" version="13.9.3" type="github">
  <diagram id="C5RBs43oDa-KdzZeNtuy" name="Page-1">
    <mxGraphModel dx="818" dy="2788" grid="1" gridSize="10" guides="1" tooltips="1" connect="1" arrows="1" fold="1" page="1" pageScale="1" pageWidth="827" pageHeight="1169" math="0" shadow="0">
      <root>
        <mxCell id="WIyWlLk6GJQsqaUBKTNV-0" />
        <mxCell id="WIyWlLk6GJQsqaUBKTNV-1" parent="WIyWlLk6GJQsqaUBKTNV-0" />
        <mxCell id="1JXrUA-Yjfwm9p3drCcF-0" value="&lt;br&gt;&lt;br&gt;&lt;b style=&quot;font-weight: normal&quot; id=&quot;docs-internal-guid-f367e695-7fff-05dd-d407-37b9cecacf52&quot;&gt;&lt;p dir=&quot;ltr&quot; style=&quot;line-height: 1.38 ; text-align: justify ; margin-top: 0pt ; margin-bottom: 0pt&quot;&gt;&lt;span style=&quot;font-size: 14pt ; font-family: &amp;#34;calibri&amp;#34; , sans-serif ; color: rgb(0 , 0 , 0) ; background-color: transparent ; font-weight: 400 ; font-style: normal ; font-variant: normal ; text-decoration: none ; vertical-align: baseline&quot;&gt;Uma empresa de pesquisa coletou dados de uma determinada cidade para ajudar na definição de uma campanha publicitária. Foram coletados dados do peso, da idade e do salário de uma amostra de 50 pessoas. Você foi contratado para desenhar os fluxogramas do programa que será desenvolvido para compilar esses dados. Segue abaixo o que você deverá fazer e entregar:&lt;/span&gt;&lt;/p&gt;&lt;p dir=&quot;ltr&quot; style=&quot;line-height: 1.38 ; text-align: justify ; margin-top: 0pt ; margin-bottom: 0pt&quot;&gt;&lt;span style=&quot;font-size: 14pt ; font-family: &amp;#34;calibri&amp;#34; , sans-serif ; color: rgb(0 , 0 , 0) ; background-color: transparent ; font-weight: 400 ; font-style: normal ; font-variant: normal ; text-decoration: none ; vertical-align: baseline&quot;&gt;&lt;br&gt;&lt;/span&gt;&lt;/p&gt;&lt;p dir=&quot;ltr&quot; style=&quot;line-height: 1.38 ; text-align: justify ; margin-top: 0pt ; margin-bottom: 0pt&quot;&gt;&lt;span style=&quot;font-size: 14pt ; font-family: &amp;#34;calibri&amp;#34; , sans-serif ; color: rgb(0 , 0 , 0) ; background-color: transparent ; font-weight: 700 ; font-style: normal ; font-variant: normal ; text-decoration: none ; vertical-align: baseline&quot;&gt;a) &lt;/span&gt;&lt;span style=&quot;font-size: 14pt ; font-family: &amp;#34;calibri&amp;#34; , sans-serif ; color: rgb(0 , 0 , 0) ; background-color: transparent ; font-weight: 400 ; font-style: normal ; font-variant: normal ; text-decoration: none ; vertical-align: baseline&quot;&gt;Desenhar o fluxograma de uma função que recebe como parâmetro um vetor de pesos e outro de idades e retorna a média dos pesos das pessoas com mais de 60 anos.&lt;/span&gt;&lt;/p&gt;&lt;p dir=&quot;ltr&quot; style=&quot;line-height: 1.38 ; text-align: justify ; margin-top: 0pt ; margin-bottom: 0pt&quot;&gt;&lt;span style=&quot;font-size: 14pt ; font-family: &amp;#34;calibri&amp;#34; , sans-serif ; color: rgb(0 , 0 , 0) ; background-color: transparent ; font-weight: 400 ; font-style: normal ; font-variant: normal ; text-decoration: none ; vertical-align: baseline&quot;&gt;&lt;span id=&quot;docs-internal-guid-11a64049-7fff-ae32-5dbd-ca60cdbc44b4&quot;&gt;&lt;/span&gt;&lt;/span&gt;&lt;/p&gt;&lt;p dir=&quot;ltr&quot; style=&quot;line-height: 1.38 ; text-align: justify ; margin-top: 0pt ; margin-bottom: 0pt&quot;&gt;&lt;span style=&quot;font-size: 12pt ; font-family: &amp;#34;calibri&amp;#34; , sans-serif ; color: rgb(255 , 0 , 0) ; background-color: transparent ; font-weight: 400 ; font-style: italic ; font-variant: normal ; text-decoration: none ; vertical-align: baseline&quot;&gt;escreva sua resposta aqui&lt;/span&gt;&lt;/p&gt;&lt;p dir=&quot;ltr&quot; style=&quot;line-height: 1.38 ; text-align: justify ; margin-top: 0pt ; margin-bottom: 0pt&quot;&gt;&lt;span style=&quot;font-size: 12pt ; font-family: &amp;#34;calibri&amp;#34; , sans-serif ; color: rgb(255 , 0 , 0) ; background-color: transparent ; font-weight: 400 ; font-style: italic ; font-variant: normal ; text-decoration: none ; vertical-align: baseline&quot;&gt;&lt;br&gt;&lt;/span&gt;&lt;/p&gt;&lt;p dir=&quot;ltr&quot; style=&quot;line-height: 1.38 ; text-align: justify ; margin-top: 0pt ; margin-bottom: 0pt&quot;&gt;&lt;span style=&quot;font-size: 14pt ; font-family: &amp;#34;calibri&amp;#34; , sans-serif ; color: rgb(0 , 0 , 0) ; background-color: transparent ; font-weight: 700 ; font-style: normal ; font-variant: normal ; text-decoration: none ; vertical-align: baseline&quot;&gt;b) &lt;/span&gt;&lt;span style=&quot;font-size: 14pt ; font-family: &amp;#34;calibri&amp;#34; , sans-serif ; color: rgb(0 , 0 , 0) ; background-color: transparent ; font-weight: 400 ; font-style: normal ; font-variant: normal ; text-decoration: none ; vertical-align: baseline&quot;&gt;Desenhar o fluxograma de uma função que recebe como parâmetro um vetor de salários e outro de idades e retorna a média dos salários das pessoas com idades entre 30 e 50 anos.&lt;/span&gt;&lt;/p&gt;&lt;p dir=&quot;ltr&quot; style=&quot;line-height: 1.38 ; text-align: justify ; margin-top: 0pt ; margin-bottom: 0pt&quot;&gt;&lt;span style=&quot;font-size: 12pt ; font-family: &amp;#34;calibri&amp;#34; , sans-serif ; color: rgb(255 , 0 , 0) ; background-color: transparent ; font-weight: 400 ; font-style: italic ; font-variant: normal ; text-decoration: none ; vertical-align: baseline&quot;&gt;&lt;span id=&quot;docs-internal-guid-d81f11be-7fff-fd33-b6b5-8922388f3a95&quot;&gt;&lt;/span&gt;&lt;/span&gt;&lt;/p&gt;&lt;p dir=&quot;ltr&quot; style=&quot;line-height: 1.38 ; text-align: justify ; margin-top: 0pt ; margin-bottom: 0pt&quot;&gt;&lt;span style=&quot;font-size: 12pt ; font-family: &amp;#34;calibri&amp;#34; , sans-serif ; color: rgb(255 , 0 , 0) ; background-color: transparent ; font-weight: 400 ; font-style: italic ; font-variant: normal ; text-decoration: none ; vertical-align: baseline&quot;&gt;escreva sua resposta aqui&lt;/span&gt;&lt;/p&gt;&lt;p dir=&quot;ltr&quot; style=&quot;line-height: 1.38 ; text-align: justify ; margin-top: 0pt ; margin-bottom: 0pt&quot;&gt;&lt;span style=&quot;font-size: 12pt ; font-family: &amp;#34;calibri&amp;#34; , sans-serif ; color: rgb(255 , 0 , 0) ; background-color: transparent ; font-weight: 400 ; font-style: italic ; font-variant: normal ; text-decoration: none ; vertical-align: baseline&quot;&gt;&lt;br&gt;&lt;/span&gt;&lt;/p&gt;&lt;p dir=&quot;ltr&quot; style=&quot;line-height: 1.38 ; text-align: justify ; margin-top: 0pt ; margin-bottom: 0pt&quot;&gt;&lt;span style=&quot;font-size: 14pt ; font-family: &amp;#34;calibri&amp;#34; , sans-serif ; color: rgb(0 , 0 , 0) ; background-color: transparent ; font-weight: 400 ; font-style: normal ; font-variant: normal ; text-decoration: none ; vertical-align: baseline&quot;&gt;c&lt;/span&gt;&lt;span style=&quot;font-size: 14pt ; font-family: &amp;#34;calibri&amp;#34; , sans-serif ; color: rgb(0 , 0 , 0) ; background-color: transparent ; font-weight: 700 ; font-style: normal ; font-variant: normal ; text-decoration: none ; vertical-align: baseline&quot;&gt;)&lt;/span&gt;&lt;span style=&quot;font-size: 14pt ; font-family: &amp;#34;calibri&amp;#34; , sans-serif ; color: rgb(0 , 0 , 0) ; background-color: transparent ; font-weight: 400 ; font-style: normal ; font-variant: normal ; text-decoration: none ; vertical-align: baseline&quot;&gt; Construir um fluxograma de um programa que cria os vetores e coleta as informações de peso, idade e salário de 50 pessoas e exibe (usar obrigatoriamente as funções acima):&lt;/span&gt;&lt;/p&gt;&lt;ul style=&quot;margin-top: 0 ; margin-bottom: 0&quot;&gt;&lt;li dir=&quot;ltr&quot; style=&quot;list-style-type: disc ; font-size: 14pt ; font-family: &amp;#34;calibri&amp;#34; , sans-serif ; color: rgb(0 , 0 , 0) ; background-color: transparent ; font-weight: 400 ; font-style: normal ; font-variant: normal ; text-decoration: none ; vertical-align: baseline&quot;&gt;&lt;p dir=&quot;ltr&quot; style=&quot;line-height: 1.38 ; text-align: justify ; margin-top: 0pt ; margin-bottom: 0pt&quot;&gt;&lt;span style=&quot;font-size: 14pt ; font-family: &amp;#34;calibri&amp;#34; , sans-serif ; color: rgb(0 , 0 , 0) ; background-color: transparent ; font-weight: 400 ; font-style: normal ; font-variant: normal ; text-decoration: none ; vertical-align: baseline&quot;&gt;a média dos pesos das pessoas com mais de 60 anos.&lt;/span&gt;&lt;/p&gt;&lt;/li&gt;&lt;li dir=&quot;ltr&quot; style=&quot;list-style-type: disc ; font-size: 14pt ; font-family: &amp;#34;calibri&amp;#34; , sans-serif ; color: rgb(0 , 0 , 0) ; background-color: transparent ; font-weight: 400 ; font-style: normal ; font-variant: normal ; text-decoration: none ; vertical-align: baseline&quot;&gt;&lt;p dir=&quot;ltr&quot; style=&quot;line-height: 1.38 ; text-align: justify ; margin-top: 0pt ; margin-bottom: 0pt&quot;&gt;&lt;span style=&quot;font-size: 14pt ; font-family: &amp;#34;calibri&amp;#34; , sans-serif ; color: rgb(0 , 0 , 0) ; background-color: transparent ; font-weight: 400 ; font-style: normal ; font-variant: normal ; text-decoration: none ; vertical-align: baseline&quot;&gt;a média dos salários das pessoas com idades entre 30 e 50 anos.&lt;/span&gt;&lt;/p&gt;&lt;/li&gt;&lt;/ul&gt;&lt;p dir=&quot;ltr&quot; style=&quot;line-height: 1.38 ; text-align: justify ; margin-top: 0pt ; margin-bottom: 0pt&quot;&gt;&lt;span style=&quot;font-size: 12pt ; font-family: &amp;#34;calibri&amp;#34; , sans-serif ; color: rgb(255 , 0 , 0) ; background-color: transparent ; font-weight: 400 ; font-style: italic ; font-variant: normal ; text-decoration: none ; vertical-align: baseline&quot;&gt;&lt;span id=&quot;docs-internal-guid-9d4a5a14-7fff-1daa-b311-a5176db41883&quot;&gt;&lt;br&gt;&lt;/span&gt;&lt;/span&gt;&lt;/p&gt;&lt;p dir=&quot;ltr&quot; style=&quot;line-height: 1.38 ; text-align: justify ; margin-top: 0pt ; margin-bottom: 0pt&quot;&gt;&lt;span style=&quot;font-size: 12pt ; font-family: &amp;#34;calibri&amp;#34; , sans-serif ; color: rgb(255 , 0 , 0) ; background-color: transparent ; font-weight: 400 ; font-style: italic ; font-variant: normal ; text-decoration: none ; vertical-align: baseline&quot;&gt;escreva sua resposta aqui&lt;/span&gt;&lt;/p&gt;&lt;/b&gt;&lt;br class=&quot;Apple-interchange-newline&quot;&gt;&lt;br&gt;" style="text;html=1;strokeColor=none;fillColor=none;align=center;verticalAlign=middle;whiteSpace=wrap;rounded=0;" vertex="1" parent="WIyWlLk6GJQsqaUBKTNV-1">
          <mxGeometry x="10" y="-1270" width="770" height="480" as="geometry" />
        </mxCell>
        <mxCell id="1JXrUA-Yjfwm9p3drCcF-1" style="edgeStyle=orthogonalEdgeStyle;rounded=0;orthogonalLoop=1;jettySize=auto;html=1;exitX=0.5;exitY=1;exitDx=0;exitDy=0;" edge="1" parent="WIyWlLk6GJQsqaUBKTNV-1" source="1JXrUA-Yjfwm9p3drCcF-0" target="1JXrUA-Yjfwm9p3drCcF-0">
          <mxGeometry relative="1" as="geometry" />
        </mxCell>
        <mxCell id="1JXrUA-Yjfwm9p3drCcF-38" style="edgeStyle=orthogonalEdgeStyle;rounded=0;orthogonalLoop=1;jettySize=auto;html=1;entryX=0.5;entryY=0;entryDx=0;entryDy=0;" edge="1" parent="WIyWlLk6GJQsqaUBKTNV-1" source="1JXrUA-Yjfwm9p3drCcF-2" target="1JXrUA-Yjfwm9p3drCcF-22">
          <mxGeometry relative="1" as="geometry" />
        </mxCell>
        <mxCell id="1JXrUA-Yjfwm9p3drCcF-2" value="calc_media(peso,idade,50)" style="ellipse;whiteSpace=wrap;html=1;" vertex="1" parent="WIyWlLk6GJQsqaUBKTNV-1">
          <mxGeometry x="493.62" y="-830" width="150" height="50" as="geometry" />
        </mxCell>
        <mxCell id="1JXrUA-Yjfwm9p3drCcF-16" style="edgeStyle=orthogonalEdgeStyle;rounded=0;orthogonalLoop=1;jettySize=auto;html=1;entryX=0.5;entryY=0;entryDx=0;entryDy=0;" edge="1" parent="WIyWlLk6GJQsqaUBKTNV-1" source="1JXrUA-Yjfwm9p3drCcF-3" target="1JXrUA-Yjfwm9p3drCcF-14">
          <mxGeometry relative="1" as="geometry" />
        </mxCell>
        <mxCell id="1JXrUA-Yjfwm9p3drCcF-3" value="i=0" style="rounded=1;whiteSpace=wrap;html=1;" vertex="1" parent="WIyWlLk6GJQsqaUBKTNV-1">
          <mxGeometry x="530" y="-630" width="80" height="30" as="geometry" />
        </mxCell>
        <mxCell id="1JXrUA-Yjfwm9p3drCcF-40" style="edgeStyle=orthogonalEdgeStyle;rounded=0;orthogonalLoop=1;jettySize=auto;html=1;entryX=0.5;entryY=0;entryDx=0;entryDy=0;" edge="1" parent="WIyWlLk6GJQsqaUBKTNV-1" source="1JXrUA-Yjfwm9p3drCcF-11" target="1JXrUA-Yjfwm9p3drCcF-3">
          <mxGeometry relative="1" as="geometry" />
        </mxCell>
        <mxCell id="1JXrUA-Yjfwm9p3drCcF-11" value="soma_peso=0" style="rounded=1;whiteSpace=wrap;html=1;" vertex="1" parent="WIyWlLk6GJQsqaUBKTNV-1">
          <mxGeometry x="528.62" y="-710" width="82.75" height="29" as="geometry" />
        </mxCell>
        <mxCell id="1JXrUA-Yjfwm9p3drCcF-12" value="return soma_peso/cont" style="ellipse;whiteSpace=wrap;html=1;" vertex="1" parent="WIyWlLk6GJQsqaUBKTNV-1">
          <mxGeometry x="500" y="-210" width="150" height="40" as="geometry" />
        </mxCell>
        <mxCell id="1JXrUA-Yjfwm9p3drCcF-30" style="edgeStyle=orthogonalEdgeStyle;rounded=0;orthogonalLoop=1;jettySize=auto;html=1;entryX=0.5;entryY=0;entryDx=0;entryDy=0;" edge="1" parent="WIyWlLk6GJQsqaUBKTNV-1" source="1JXrUA-Yjfwm9p3drCcF-14" target="1JXrUA-Yjfwm9p3drCcF-20">
          <mxGeometry relative="1" as="geometry" />
        </mxCell>
        <mxCell id="1JXrUA-Yjfwm9p3drCcF-34" style="edgeStyle=orthogonalEdgeStyle;rounded=0;orthogonalLoop=1;jettySize=auto;html=1;entryX=0;entryY=0.5;entryDx=0;entryDy=0;" edge="1" parent="WIyWlLk6GJQsqaUBKTNV-1" source="1JXrUA-Yjfwm9p3drCcF-14" target="1JXrUA-Yjfwm9p3drCcF-12">
          <mxGeometry relative="1" as="geometry">
            <Array as="points">
              <mxPoint x="470" y="-540" />
              <mxPoint x="470" y="-190" />
            </Array>
          </mxGeometry>
        </mxCell>
        <mxCell id="1JXrUA-Yjfwm9p3drCcF-14" value="i&amp;lt;50&lt;br&gt;?" style="rhombus;whiteSpace=wrap;html=1;" vertex="1" parent="WIyWlLk6GJQsqaUBKTNV-1">
          <mxGeometry x="530" y="-580" width="80" height="80" as="geometry" />
        </mxCell>
        <mxCell id="1JXrUA-Yjfwm9p3drCcF-18" style="edgeStyle=orthogonalEdgeStyle;rounded=0;orthogonalLoop=1;jettySize=auto;html=1;entryX=1;entryY=0.5;entryDx=0;entryDy=0;" edge="1" parent="WIyWlLk6GJQsqaUBKTNV-1" source="1JXrUA-Yjfwm9p3drCcF-15" target="1JXrUA-Yjfwm9p3drCcF-14">
          <mxGeometry relative="1" as="geometry">
            <Array as="points">
              <mxPoint x="780" y="-245" />
              <mxPoint x="780" y="-540" />
            </Array>
          </mxGeometry>
        </mxCell>
        <mxCell id="1JXrUA-Yjfwm9p3drCcF-15" value="i=i+1" style="rounded=1;whiteSpace=wrap;html=1;" vertex="1" parent="WIyWlLk6GJQsqaUBKTNV-1">
          <mxGeometry x="530" y="-260" width="80" height="30" as="geometry" />
        </mxCell>
        <mxCell id="1JXrUA-Yjfwm9p3drCcF-26" style="edgeStyle=orthogonalEdgeStyle;rounded=0;orthogonalLoop=1;jettySize=auto;html=1;entryX=0.5;entryY=0;entryDx=0;entryDy=0;" edge="1" parent="WIyWlLk6GJQsqaUBKTNV-1" source="1JXrUA-Yjfwm9p3drCcF-20" target="1JXrUA-Yjfwm9p3drCcF-21">
          <mxGeometry relative="1" as="geometry" />
        </mxCell>
        <mxCell id="1JXrUA-Yjfwm9p3drCcF-33" style="edgeStyle=orthogonalEdgeStyle;rounded=0;orthogonalLoop=1;jettySize=auto;html=1;entryX=0;entryY=0.5;entryDx=0;entryDy=0;" edge="1" parent="WIyWlLk6GJQsqaUBKTNV-1" source="1JXrUA-Yjfwm9p3drCcF-20" target="1JXrUA-Yjfwm9p3drCcF-31">
          <mxGeometry relative="1" as="geometry">
            <Array as="points">
              <mxPoint x="510" y="-440" />
              <mxPoint x="510" y="-305" />
            </Array>
          </mxGeometry>
        </mxCell>
        <mxCell id="1JXrUA-Yjfwm9p3drCcF-20" value="idade[i]&amp;gt;60&lt;br&gt;?" style="rhombus;whiteSpace=wrap;html=1;" vertex="1" parent="WIyWlLk6GJQsqaUBKTNV-1">
          <mxGeometry x="530" y="-480" width="80" height="80" as="geometry" />
        </mxCell>
        <mxCell id="1JXrUA-Yjfwm9p3drCcF-28" style="edgeStyle=orthogonalEdgeStyle;rounded=0;orthogonalLoop=1;jettySize=auto;html=1;" edge="1" parent="WIyWlLk6GJQsqaUBKTNV-1" source="1JXrUA-Yjfwm9p3drCcF-21">
          <mxGeometry relative="1" as="geometry">
            <mxPoint x="685" y="-370" as="targetPoint" />
          </mxGeometry>
        </mxCell>
        <mxCell id="1JXrUA-Yjfwm9p3drCcF-21" value="cont=cont+1" style="rounded=1;whiteSpace=wrap;html=1;" vertex="1" parent="WIyWlLk6GJQsqaUBKTNV-1">
          <mxGeometry x="645" y="-420" width="80" height="30" as="geometry" />
        </mxCell>
        <mxCell id="1JXrUA-Yjfwm9p3drCcF-39" style="edgeStyle=orthogonalEdgeStyle;rounded=0;orthogonalLoop=1;jettySize=auto;html=1;entryX=0.5;entryY=0;entryDx=0;entryDy=0;" edge="1" parent="WIyWlLk6GJQsqaUBKTNV-1" source="1JXrUA-Yjfwm9p3drCcF-22">
          <mxGeometry relative="1" as="geometry">
            <mxPoint x="568.615" y="-710" as="targetPoint" />
          </mxGeometry>
        </mxCell>
        <mxCell id="1JXrUA-Yjfwm9p3drCcF-22" value="cont=0" style="rounded=1;whiteSpace=wrap;html=1;" vertex="1" parent="WIyWlLk6GJQsqaUBKTNV-1">
          <mxGeometry x="527.24" y="-760" width="82.75" height="29" as="geometry" />
        </mxCell>
        <mxCell id="1JXrUA-Yjfwm9p3drCcF-32" style="edgeStyle=orthogonalEdgeStyle;rounded=0;orthogonalLoop=1;jettySize=auto;html=1;entryX=1;entryY=0.5;entryDx=0;entryDy=0;exitX=0.5;exitY=1;exitDx=0;exitDy=0;" edge="1" parent="WIyWlLk6GJQsqaUBKTNV-1" source="1JXrUA-Yjfwm9p3drCcF-23" target="1JXrUA-Yjfwm9p3drCcF-31">
          <mxGeometry relative="1" as="geometry">
            <Array as="points">
              <mxPoint x="690" y="-340" />
              <mxPoint x="690" y="-305" />
            </Array>
          </mxGeometry>
        </mxCell>
        <mxCell id="1JXrUA-Yjfwm9p3drCcF-23" value="soma_peso=peso[i]+soma_peso" style="rounded=1;whiteSpace=wrap;html=1;" vertex="1" parent="WIyWlLk6GJQsqaUBKTNV-1">
          <mxGeometry x="583.63" y="-370" width="180" height="30" as="geometry" />
        </mxCell>
        <mxCell id="1JXrUA-Yjfwm9p3drCcF-37" style="edgeStyle=orthogonalEdgeStyle;rounded=0;orthogonalLoop=1;jettySize=auto;html=1;entryX=0.5;entryY=0;entryDx=0;entryDy=0;" edge="1" parent="WIyWlLk6GJQsqaUBKTNV-1" source="1JXrUA-Yjfwm9p3drCcF-31" target="1JXrUA-Yjfwm9p3drCcF-15">
          <mxGeometry relative="1" as="geometry" />
        </mxCell>
        <mxCell id="1JXrUA-Yjfwm9p3drCcF-31" value="" style="ellipse;whiteSpace=wrap;html=1;aspect=fixed;" vertex="1" parent="WIyWlLk6GJQsqaUBKTNV-1">
          <mxGeometry x="553.63" y="-320" width="30" height="30" as="geometry" />
        </mxCell>
        <mxCell id="1JXrUA-Yjfwm9p3drCcF-42" value="Inicio" style="ellipse;whiteSpace=wrap;html=1;" vertex="1" parent="WIyWlLk6GJQsqaUBKTNV-1">
          <mxGeometry x="140" y="-771" width="80" height="40" as="geometry" />
        </mxCell>
        <mxCell id="1JXrUA-Yjfwm9p3drCcF-43" value="Peso=[20,30,50,60,50,40,60,70 ...]" style="rounded=1;whiteSpace=wrap;html=1;" vertex="1" parent="WIyWlLk6GJQsqaUBKTNV-1">
          <mxGeometry x="70" y="-710" width="220" height="29" as="geometry" />
        </mxCell>
        <mxCell id="1JXrUA-Yjfwm9p3drCcF-44" value="Idade=[30,35,40,45,60,70,80,90,85 ...]" style="rounded=1;whiteSpace=wrap;html=1;" vertex="1" parent="WIyWlLk6GJQsqaUBKTNV-1">
          <mxGeometry x="70" y="-659" width="220" height="29" as="geometry" />
        </mxCell>
        <mxCell id="1JXrUA-Yjfwm9p3drCcF-45" value="x=calc_media(peso,idade,50)" style="rounded=1;whiteSpace=wrap;html=1;" vertex="1" parent="WIyWlLk6GJQsqaUBKTNV-1">
          <mxGeometry x="94.31" y="-599" width="171.38" height="29" as="geometry" />
        </mxCell>
        <mxCell id="1JXrUA-Yjfwm9p3drCcF-46" value="FIM" style="ellipse;whiteSpace=wrap;html=1;" vertex="1" parent="WIyWlLk6GJQsqaUBKTNV-1">
          <mxGeometry x="132.5" y="-490" width="95" height="40" as="geometry" />
        </mxCell>
        <mxCell id="1JXrUA-Yjfwm9p3drCcF-47" value="x" style="strokeWidth=2;html=1;shape=mxgraph.flowchart.display;whiteSpace=wrap;" vertex="1" parent="WIyWlLk6GJQsqaUBKTNV-1">
          <mxGeometry x="140" y="-540" width="80" height="30" as="geometry" />
        </mxCell>
      </root>
    </mxGraphModel>
  </diagram>
</mxfile>
